<?xml version="1.0" encoding="iso-8859-1"?>
<!-- Generator: Adobe Illustrator 19.2.1, SVG Export Plug-In . SVG Version: 6.00 Build 0)  -->
<svg version="1.1" id="Layer_1_1_" xmlns="http://www.w3.org/2000/svg" xmlns:xlink="http://www.w3.org/1999/xlink" x="0px" y="0px"
	 viewBox="0 0 64 64" style="enable-background:new 0 0 64 64;" xml:space="preserve">
<g>
</g>
<path d="M59.105,54.975C57.571,51.906,54.487,50,51.056,50H46c-3.555,0-6.493-2.666-6.936-6.102C42.631,41.578,45,37.563,45,33V21
	c0-3.859-3.14-7-7-7H15c-0.552,0-1,0.447-1,1c0,1.822,0.816,3.457,2.103,4.559C16.037,19.691,16,19.842,16,20
	c0,2.155,1.158,4.127,3,5.191V33c0,4.563,2.369,8.578,5.936,10.898C24.493,47.334,21.555,50,18,50h-5.056
	c-3.431,0-6.516,1.906-8.05,4.975l-2.789,5.578C2.036,60.691,2,60.845,2,61v1h2v-0.764l2.684-5.367
	C7.877,53.482,10.276,52,12.944,52H18c4.309,0,7.917-3.045,8.793-7.096C28.389,45.605,30.148,46,32,46s3.611-0.395,5.207-1.096
	C38.083,48.955,41.691,52,46,52h5.056c2.668,0,5.067,1.482,6.261,3.869L60,61.236V62h2v-1c0-0.155-0.036-0.309-0.105-0.447
	L59.105,54.975z M21,33v-8.422c0-0.397-0.235-0.757-0.599-0.916c-1.144-0.501-1.97-1.492-2.273-2.662H20c0.552,0,1-0.447,1-1
	s-0.448-1-1-1c-1.86,0-3.428-1.276-3.874-3H38c2.757,0,5,2.243,5,5v12c0,6.065-4.935,11-11,11S21,39.065,21,33z"/>
<path d="M34.071,54.905L35.8,52.6c0.228-0.303,0.264-0.708,0.095-1.047S35.379,51,35,51h-6c-0.379,0-0.725,0.214-0.895,0.553
	S27.973,52.297,28.2,52.6l1.729,2.305l-2.824,5.648C27.036,60.691,27,60.845,27,61v1h2v-0.764l2.284-4.567
	C31.471,56.869,31.722,57,32,57s0.529-0.131,0.716-0.331L35,61.236V62h2v-1c0-0.155-0.036-0.309-0.105-0.447L34.071,54.905z M31,53
	h2l-1,1.333L31,53z"/>
<path d="M32,12c0.256,0,0.512-0.098,0.707-0.293l4-4l-1.414-1.414L33,8.586V2h-2v6.586l-2.293-2.293l-1.414,1.414l4,4
	C31.488,11.902,31.744,12,32,12z"/>
<path d="M51.293,22.293l-4,4c-0.391,0.391-0.391,1.023,0,1.414l4,4l1.414-1.414L50.414,28H57v-2h-6.586l2.293-2.293L51.293,22.293z"
	/>
<path d="M12.707,31.707l4-4c0.391-0.391,0.391-1.023,0-1.414l-4-4l-1.414,1.414L13.586,26H7v2h6.586l-2.293,2.293L12.707,31.707z"/>
<rect x="59" y="26" width="2" height="2"/>
<rect x="3" y="26" width="2" height="2"/>
<path d="M27,25c-2.206,0-4,1.794-4,4s1.794,4,4,4s4-1.794,4-4S29.206,25,27,25z M27,31c-1.103,0-2-0.897-2-2s0.897-2,2-2
	s2,0.897,2,2S28.103,31,27,31z"/>
<path d="M37,33c2.206,0,4-1.794,4-4s-1.794-4-4-4s-4,1.794-4,4S34.794,33,37,33z M37,27c1.103,0,2,0.897,2,2s-0.897,2-2,2
	s-2-0.897-2-2S35.897,27,37,27z"/>
<path d="M59,2H47c-1.654,0-3,1.346-3,3v6c0,1.654,1.346,3,3,3v2c0,0.36,0.194,0.692,0.507,0.87C47.66,16.957,47.83,17,48,17
	c0.178,0,0.356-0.048,0.515-0.143L53.277,14H59c1.654,0,3-1.346,3-3V5C62,3.346,60.654,2,59,2z M60,11c0,0.552-0.449,1-1,1h-6
	c-0.181,0-0.359,0.049-0.515,0.143L49,14.233V13c0-0.553-0.448-1-1-1h-1c-0.551,0-1-0.448-1-1V5c0-0.552,0.449-1,1-1h12
	c0.551,0,1,0.448,1,1V11z"/>
<rect x="48" y="7" width="2" height="2"/>
<rect x="52" y="7" width="2" height="2"/>
<rect x="56" y="7" width="2" height="2"/>
<path d="M16,48c1.654,0,3-1.346,3-3v-4c0-1.581-1.229-2.88-2.782-2.992l0.762-3.812c0.083-0.416-0.105-0.839-0.469-1.056
	c-0.364-0.218-0.825-0.181-1.151,0.091L9.638,38H4c-1.654,0-3,1.346-3,3v4c0,1.654,1.346,3,3,3H16z M3,45v-4c0-0.552,0.449-1,1-1h6
	c0.234,0,0.46-0.082,0.64-0.231l3.824-3.187l-0.444,2.222c-0.059,0.294,0.017,0.599,0.207,0.83S14.7,40,15,40h1c0.551,0,1,0.448,1,1
	v4c0,0.552-0.449,1-1,1H4C3.449,46,3,45.552,3,45z"/>
<rect x="13" y="42" width="2" height="2"/>
<rect x="9" y="42" width="2" height="2"/>
<rect x="5" y="42" width="2" height="2"/>
<path d="M34,39v2c2.757,0,5-2.243,5-5h-2C37,37.654,35.654,39,34,39z"/>
<path d="M5,12h1.723l4.762,2.857C11.644,14.952,11.822,15,12,15c0.17,0,0.34-0.043,0.493-0.13C12.806,14.692,13,14.36,13,14v-2
	c1.654,0,3-1.346,3-3V5c0-1.654-1.346-3-3-3H5C3.346,2,2,3.346,2,5v4C2,10.654,3.346,12,5,12z M4,5c0-0.552,0.449-1,1-1h8
	c0.551,0,1,0.448,1,1v4c0,0.552-0.449,1-1,1h-1c-0.552,0-1,0.447-1,1v1.233l-3.485-2.091C7.359,10.049,7.181,10,7,10H5
	c-0.551,0-1-0.448-1-1V5z"/>
<rect x="10" y="6" width="2" height="2"/>
<rect x="6" y="6" width="2" height="2"/>
<path d="M45,41v4c0,1.654,1.346,3,3,3h8c1.654,0,3-1.346,3-3v-4c0-1.654-1.346-3-3-3h-1.723l-4.762-2.857
	c-0.309-0.186-0.694-0.191-1.007-0.013C48.194,35.308,48,35.64,48,36v2C46.346,38,45,39.346,45,41z M47,41c0-0.552,0.449-1,1-1h1
	c0.552,0,1-0.447,1-1v-1.233l3.485,2.091C53.641,39.951,53.819,40,54,40h2c0.551,0,1,0.448,1,1v4c0,0.552-0.449,1-1,1h-8
	c-0.551,0-1-0.448-1-1V41z"/>
<rect x="49" y="42" width="2" height="2"/>
<rect x="53" y="42" width="2" height="2"/>
</svg>
